<svg xmlns="http://www.w3.org/2000/svg" viewBox="0 0 714.09 72.79"><defs><style>.cls-1{fill:#fff;}</style></defs><title>Asset 37BIT20</title><g id="Layer_2" data-name="Layer 2"><g id="Layer_1-2" data-name="Layer 1"><polygon class="cls-1" points="45.48 59.58 75.55 59.58 75.55 49.58 55.48 49.58 55.48 39.48 71.34 39.48 71.34 29.48 55.48 29.48 55.48 19.39 75.55 19.39 75.55 9.39 45.48 9.39 45.48 59.58"/><path class="cls-1" d="M17.27,9.39H0V59.58H17.27A15,15,0,0,0,28.46,34.49,15,15,0,0,0,17.27,9.39Zm0,40.19H10V39.49h7.27a5,5,0,0,1,0,10.09Zm0-20.09H10V19.39h7.27a5.05,5.05,0,0,1,0,10.1Z"/><path class="cls-1" d="M327.48,24.44a15.07,15.07,0,0,0-15.05-15H295.17V59.58h10V39.49h.55l12,20.58h11.58l-12.4-21.26A15.09,15.09,0,0,0,327.48,24.44Zm-15.05,5h-7.26V19.39h7.26a5,5,0,1,1,0,10.1Z"/><path class="cls-1" d="M112,32.79l-11-6.33a3.79,3.79,0,0,1,1.89-7.07h15.44v-10H102.94a13.79,13.79,0,0,0-6.88,25.74l11,6.32a4.36,4.36,0,0,1-2.17,8.13H89.43v10h15.44A14.35,14.35,0,0,0,112,32.79Z"/><polygon class="cls-1" points="431.71 59.58 461.78 59.58 461.78 49.58 441.71 49.58 441.71 39.48 457.57 39.48 457.57 29.48 441.71 29.48 441.71 19.39 461.78 19.39 461.78 9.39 431.71 9.39 431.71 59.58"/><polygon class="cls-1" points="484.7 9.39 474.7 9.39 474.7 59.58 503.36 59.58 503.36 49.58 484.7 49.58 484.7 9.39"/><polygon class="cls-1" points="129.22 19.39 141.42 19.39 141.42 59.58 151.42 59.58 151.42 19.39 163.61 19.39 163.61 9.39 129.22 9.39 129.22 19.39"/><polygon class="cls-1" points="249.33 19.39 261.52 19.39 261.52 59.58 271.52 59.58 271.52 19.39 283.72 19.39 283.72 9.39 249.33 9.39 249.33 19.39"/><rect class="cls-1" x="183.28" y="9.39" width="10" height="30.38"/><polygon class="cls-1" points="213 27.73 221.93 38.05 223.5 39.77 230.79 39.77 230.79 9.39 220.79 9.39 220.79 21.44 211.86 11.12 210.28 9.39 203 9.39 203 39.77 213 39.77 213 27.73"/><rect class="cls-1" x="183.28" y="49.58" width="47.79" height="10"/><path class="cls-1" d="M352.62,9.39,335.84,60.07h10.53l2.37-7.16h16.17l2.41,7.16h10.55L360.81,9.39Zm-.57,33.52,4.71-14.21,4.78,14.21Z"/><polygon class="cls-1" points="400.35 40.35 389.92 9.15 379.37 9.15 396.28 59.75 404.5 59.75 421.13 9.15 410.6 9.15 400.35 40.35"/><path class="cls-1" d="M591.16,0a26,26,0,1,0,26,26A26,26,0,0,0,591.16,0Zm0,41.91a16,16,0,1,1,16-16A16,16,0,0,1,591.16,41.91Z"/><path class="cls-1" d="M565.15,56.9c-8.44-3-17.13-6.13-31.17-6.78a12.36,12.36,0,0,1,3.69-6l17.86-15.92.21-.2a16.43,16.43,0,1,0-28-11.71l0,5,10,.06,0-5a6.43,6.43,0,1,1,11.06,4.49L531,36.7a22.39,22.39,0,0,0-7.49,16.7V60h5c15.61,0,24.18,3.07,33.25,6.32,8.88,3.18,18.06,6.47,33.32,6.47h5v-10h-5C581.58,62.79,573.6,59.93,565.15,56.9Z"/><path class="cls-1" d="M688.14,0a26,26,0,1,0,26,26A26,26,0,0,0,688.14,0Zm0,41.91a16,16,0,1,1,16-16A16,16,0,0,1,688.14,41.91Z"/><path class="cls-1" d="M662.13,56.9c-8.44-3-17.12-6.13-31.17-6.78a12.31,12.31,0,0,1,3.7-6l17.85-15.92.21-.2a16.42,16.42,0,0,0-1.41-24.49,16.43,16.43,0,0,0-26.64,12.78l0,5,10,.06,0-5a6.43,6.43,0,1,1,11.06,4.49L628,36.7a22.38,22.38,0,0,0-7.48,16.7V60h5c15.6,0,24.17,3.07,33.24,6.32,8.88,3.18,18.06,6.47,33.33,6.47h5v-10h-5C678.56,62.79,670.58,59.93,662.13,56.9Z"/></g></g></svg>